<?xml version="1.0" encoding="UTF-8"?>
<svg width="297px" height="82px" viewBox="0 0 297 82" version="1.1" xmlns="http://www.w3.org/2000/svg" xmlns:xlink="http://www.w3.org/1999/xlink">
    <!-- Generator: Sketch 44.1 (41455) - http://www.bohemiancoding.com/sketch -->
    <title>Page 1</title>
    <desc>Created with Sketch.</desc>
    <defs>
        <polygon id="path-1" points="0.394341203 61.9555556 42.7536962 61.9555556 42.7536962 0.416195556 0.394341203 0.416195556 0.394341203 61.9555556"></polygon>
        <polygon id="path-3" points="0 81.2135289 296.906294 81.2135289 296.906294 0.000728888889 0 0.000728888889"></polygon>
    </defs>
    <g id="Welcome" stroke="none" stroke-width="1" fill="none" fill-rule="evenodd">
        <g id="Desktop-Copy-2" transform="translate(-362.000000, -173.000000)">
            <g id="Page-1" transform="translate(362.000000, 173.000000)">
                <path d="M35.5925692,40.6479467 L35.5925692,20.3338133 L43.7488981,20.3338133 L43.7488981,40.6479467 C43.7488981,53.7679467 33.6819474,62.2449244 21.8708305,62.2449244 C10.074188,62.2449244 0,53.7679467 0,40.6479467 L0,20.3338133 L8.16356611,20.3338133 L8.16356611,40.6479467 C8.16356611,48.95728 14.4961196,54.3802133 21.8708305,54.3802133 C29.2527785,54.3802133 35.5925692,48.95728 35.5925692,40.6479467 Z" id="Fill-1" fill="#252C41"></path>
                <g id="Group-5" transform="translate(57.011885, 19.257973)">
                    <mask id="mask-2" fill="white">
                        <use xlink:href="#path-1"></use>
                    </mask>
                    <g id="Clip-4"></g>
                    <path d="M21.6572465,35.2060622 C28.9523482,35.2060622 34.7710602,30.0455289 34.7710602,21.9184178 C34.7710602,13.7913067 28.9523482,8.19344 21.6572465,8.19344 C14.543075,8.19344 8.37697721,13.2592178 8.37697721,21.9184178 C8.37697721,30.6577956 15.1510001,35.2060622 21.6572465,35.2060622 L21.6572465,35.2060622 Z M8.29013076,7.66864 C10.9823706,3.03290667 16.8010827,0.416195556 22.4388646,0.416195556 C33.5552099,0.416195556 42.7536962,8.89317333 42.7536962,21.8309511 C42.7536962,34.76144 33.5552099,42.9833067 22.4388646,42.9833067 C16.8010827,42.9833067 10.9823706,40.7164622 8.29013076,35.9859733 L8.29013076,61.9562844 L0.394341203,61.9562844 L0.394341203,1.29086222 L8.29013076,1.29086222 L8.29013076,7.66864 Z" id="Fill-3" fill="#252C41" mask="url(#mask-2)"></path>
                </g>
                <mask id="mask-4" fill="white">
                    <use xlink:href="#path-3"></use>
                </mask>
                <g id="Clip-7"></g>
                <polygon id="Fill-6" fill="#252C41" mask="url(#mask-4)" points="109.687064 44.7617956 121.773194 44.7617956 121.773194 37.1521956 109.687064 37.1521956"></polygon>
                <polygon id="Fill-8" fill="#252C41" mask="url(#mask-4)" points="152.231691 21.5503289 152.231691 28.2779733 143.64113 28.2779733 143.64113 62.3753956 135.738103 62.3753956 135.738103 28.2779733 128.450239 28.2779733 128.450239 21.5503289 135.738103 21.5503289 135.738103 6.16348444 143.64113 6.16348444 143.64113 21.5503289"></polygon>
                <path d="M161.17977,62.3717511 L168.99595,62.3717511 L168.99595,21.5466844 L161.17977,21.5466844 L161.17977,62.3717511 Z M165.08786,1.35646222 C168.127486,1.35646222 170.559187,3.54312889 170.559187,6.50970667 C170.559187,9.48357333 168.127486,11.67024 165.08786,11.67024 C162.135081,11.67024 159.616534,9.48357333 159.616534,6.50970667 C159.616534,3.54312889 162.135081,1.35646222 165.08786,1.35646222 L165.08786,1.35646222 Z" id="Fill-9" fill="#252C41" mask="url(#mask-4)"></path>
                <path d="M218.05189,40.3418133 L218.05189,62.3688356 L210.148864,62.3688356 L210.148864,39.2047467 C210.148864,32.4771022 206.682243,28.4536356 201.38461,28.4536356 C195.73959,28.4536356 190.101808,31.7773689 190.101808,40.3418133 L190.101808,62.3688356 L182.198782,62.3688356 L182.198782,21.5510578 L190.101808,21.5510578 L190.101808,27.6664356 C192.265732,23.1254578 197.997598,21.1064356 201.297763,20.8440356 C202.853762,20.7565689 204.330152,20.8440356 205.726932,21.1064356 C210.843635,21.9009244 214.404339,24.6051022 216.314961,29.0659022 C220.042121,21.8134578 226.381912,20.6763911 230.369611,20.6763911 C240.523409,20.6763911 245.994735,27.3165689 245.994735,38.7674133 L245.994735,62.3688356 L238.106183,62.3688356 L238.106183,39.2922133 C238.106183,32.5645689 234.625087,28.4536356 228.806375,28.4536356 C222.126436,28.3661689 218.05189,33.5194133 218.05189,40.3418133" id="Fill-10" fill="#252C41" mask="url(#mask-4)"></path>
                <path d="M289.09518,38.7688711 C288.139869,31.9464711 283.276468,27.8428267 276.770221,27.8428267 C270.083045,27.8428267 264.872258,31.9464711 263.916947,38.7688711 L289.09518,38.7688711 Z M296.817276,44.9790044 L263.916947,44.9790044 C264.872258,51.7941156 270.177128,56.0799822 277.030761,56.0799822 C281.886924,56.0799822 286.40294,53.8058489 288.65371,49.7896711 C290.745262,50.6570489 293.256572,51.5317156 295.427733,52.4063822 C291.961112,59.57136 284.579164,63.24496 276.770221,63.24496 C265.219644,63.24496 256.028395,54.7679822 256.028395,41.8302044 C256.028395,28.8924267 265.219644,20.6778489 276.770221,20.6778489 C288.313562,20.6778489 296.904123,28.8924267 296.904123,41.8302044 C296.904123,42.7923378 296.904123,44.0970489 296.817276,44.9790044 L296.817276,44.9790044 Z" id="Fill-11" fill="#252C41" mask="url(#mask-4)"></path>
                <path d="M12.5326662,-1.77635684e-15 C15.3985989,-1.77635684e-15 17.8302995,2.18666667 17.8302995,5.15324444 C17.8302995,8.12711111 15.3985989,10.3137778 12.5326662,10.3137778 C9.58712413,10.3137778 7.15542359,8.12711111 7.15542359,5.15324444 C7.15542359,2.18666667 9.58712413,-1.77635684e-15 12.5326662,-1.77635684e-15" id="Fill-12" fill="#252C41" mask="url(#mask-4)"></path>
                <path d="M36.5927508,5.15324444 C36.5927508,8.12711111 34.1682875,10.3137778 31.2155083,10.3137778 C28.262729,10.3137778 25.8382657,8.12711111 25.8382657,5.15324444 C25.8382657,2.18666667 28.262729,-1.77635684e-15 31.2155083,-1.77635684e-15 C34.1682875,-1.77635684e-15 36.5927508,2.18666667 36.5927508,5.15324444 Z" id="Fill-13" fill="#252C41" mask="url(#mask-4)"></path>
            </g>
        </g>
    </g>
</svg>