<?xml version="1.0" encoding="UTF-8"?>
<svg width="486px" height="133px" viewBox="0 0 486 133" version="1.1" xmlns="http://www.w3.org/2000/svg" xmlns:xlink="http://www.w3.org/1999/xlink">
    <!-- Generator: Sketch 43.2 (39069) - http://www.bohemiancoding.com/sketch -->
    <title>Page 1</title>
    <desc>Created with Sketch.</desc>
    <defs>
        <polygon id="path-1" points="0.645285605 101.244444 69.9605938 101.244444 69.9605937 0.680124444 0.645285605 0.680124444 0.645285605 101.244444"></polygon>
        <polygon id="path-3" points="0 132.714791 485.846663 132.714791 485.846663 0.00119111111 0 0.00119111111"></polygon>
    </defs>
    <g id="Welcome" stroke="none" stroke-width="1" fill="none" fill-rule="evenodd">
        <g id="Logo-Design" transform="translate(-761.000000, -445.000000)">
            <g id="Page-1" transform="translate(761.000000, 445.000000)">
                <path d="M58.242386,66.4246933 L58.242386,33.2284267 L71.5891061,33.2284267 L71.5891061,66.4246933 C71.5891061,87.8646933 55.1159139,101.717316 35.7886317,101.717316 C16.4850348,101.717316 0,87.8646933 0,66.4246933 L0,33.2284267 L13.3585627,33.2284267 L13.3585627,66.4246933 C13.3585627,80.00336 23.720923,88.8652267 35.7886317,88.8652267 C47.8681831,88.8652267 58.242386,80.00336 58.242386,66.4246933 Z" id="Fill-1" fill="#1D1C1B"></path>
                <g id="Group-5" transform="translate(93.292175, 31.470347)">
                    <mask id="mask-2" fill="white">
                        <use xlink:href="#path-1"></use>
                    </mask>
                    <g id="Clip-4"></g>
                    <path d="M35.4391307,57.5318578 C47.3765697,57.5318578 56.8980985,49.0987911 56.8980985,35.8179022 C56.8980985,22.5370133 47.3765697,13.38928 35.4391307,13.38928 C23.7977591,13.38928 13.7077809,21.6675022 13.7077809,35.8179022 C13.7077809,50.0993244 24.7925457,57.5318578 35.4391307,57.5318578 L35.4391307,57.5318578 Z M13.5656685,12.53168 C17.971152,4.95621333 27.4926807,0.680124444 36.718142,0.680124444 C54.9085253,0.680124444 69.9605938,14.5327467 69.9605938,35.6749689 C69.9605938,56.80528 54.9085253,70.2410133 36.718142,70.2410133 C27.4926807,70.2410133 17.971152,66.5366578 13.5656685,58.8063467 L13.5656685,101.245636 L0.645285605,101.245636 L0.645285605,2.10945778 L13.5656685,2.10945778 L13.5656685,12.53168 Z" id="Fill-3" fill="#1D1C1B" mask="url(#mask-2)"></path>
                </g>
                <mask id="mask-4" fill="white">
                    <use xlink:href="#path-3"></use>
                </mask>
                <g id="Clip-7"></g>
                <polygon id="Fill-6" fill="#1D1C1B" mask="url(#mask-4)" points="179.487922 73.1473244 199.265227 73.1473244 199.265227 60.7121244 179.487922 60.7121244"></polygon>
                <polygon id="Fill-8" fill="#1D1C1B" mask="url(#mask-4)" points="249.106404 35.2163911 249.106404 46.2103467 235.049122 46.2103467 235.049122 101.930524 222.116896 101.930524 222.116896 46.2103467 210.1913 46.2103467 210.1913 35.2163911 222.116896 35.2163911 222.116896 10.0720356 235.049122 10.0720356 235.049122 35.2163911"></polygon>
                <path d="M263.748715,101.924569 L276.538828,101.924569 L276.538828,35.2104356 L263.748715,35.2104356 L263.748715,101.924569 Z M270.143771,2.21665778 C275.117704,2.21665778 279.096851,5.78999111 279.096851,10.6378133 C279.096851,15.4975467 275.117704,19.07088 270.143771,19.07088 C265.311951,19.07088 261.190692,15.4975467 261.190692,10.6378133 C261.190692,5.78999111 265.311951,2.21665778 270.143771,2.21665778 L270.143771,2.21665778 Z" id="Fill-9" fill="#1D1C1B" mask="url(#mask-4)"></path>
                <path d="M356.812184,65.9244267 L356.812184,101.919804 L343.879959,101.919804 L343.879959,64.0662933 C343.879959,53.0723378 338.207306,46.4974044 329.538452,46.4974044 C320.301148,46.4974044 311.075687,51.9288711 311.075687,65.9244267 L311.075687,101.919804 L298.143461,101.919804 L298.143461,35.2175822 L311.075687,35.2175822 L311.075687,45.2110044 C314.616653,37.7903822 323.99607,34.4910044 329.39634,34.0622044 C331.942519,33.9192711 334.35843,34.0622044 336.64407,34.4910044 C345.016857,35.7893156 350.843465,40.2083378 353.969937,47.4979378 C360.068926,35.6463822 370.443129,33.7882489 376.968455,33.7882489 C393.58376,33.7882489 402.536839,44.6392711 402.536839,63.3516267 L402.536839,101.919804 L389.628299,101.919804 L389.628299,64.2092267 C389.628299,53.2152711 383.931961,46.4974044 374.410433,46.4974044 C363.479623,46.3544711 356.812184,54.7756267 356.812184,65.9244267" id="Fill-10" fill="#1D1C1B" mask="url(#mask-4)"></path>
                <path d="M473.064839,63.3540089 C471.501603,52.2052089 463.543311,45.4992533 452.896726,45.4992533 C441.954073,45.4992533 433.427331,52.2052089 431.864095,63.3540089 L473.064839,63.3540089 Z M485.700997,73.5022756 L431.864095,73.5022756 C433.427331,84.6391644 442.108028,91.6428978 453.323063,91.6428978 C461.269513,91.6428978 468.659356,87.9266311 472.342435,81.3636089 C475.764974,82.7810311 479.87439,84.2103644 483.4272,85.6396978 C477.754548,97.34832 465.674996,103.35152 452.896726,103.35152 C433.99578,103.35152 418.955555,89.4988978 418.955555,68.3566756 C418.955555,47.2144533 433.99578,33.7906311 452.896726,33.7906311 C471.785828,33.7906311 485.84311,47.2144533 485.84311,68.3566756 C485.84311,69.9289422 485.84311,72.0610311 485.700997,73.5022756 L485.700997,73.5022756 Z" id="Fill-11" fill="#1D1C1B" mask="url(#mask-4)"></path>
                <path d="M20.5079992,-1.77635684e-15 C25.1977074,-1.77635684e-15 29.1768537,3.57333333 29.1768537,8.42115556 C29.1768537,13.2808889 25.1977074,16.8542222 20.5079992,16.8542222 C15.6880213,16.8542222 11.708875,13.2808889 11.708875,8.42115556 C11.708875,3.57333333 15.6880213,-1.77635684e-15 20.5079992,-1.77635684e-15" id="Fill-12" fill="#1D1C1B" mask="url(#mask-4)"></path>
                <path d="M51.0799226,-1.77635684e-15 C55.9117432,-1.77635684e-15 59.8790468,3.57333333 59.8790468,8.42115556 C59.8790468,13.2808889 55.9117432,16.8542222 51.0799226,16.8542222 C46.2481021,16.8542222 42.2807984,13.2808889 42.2807984,8.42115556 C42.2807984,3.57333333 46.2481021,-1.77635684e-15 51.0799226,-1.77635684e-15" id="Fill-13" fill="#1D1C1B" mask="url(#mask-4)"></path>
            </g>
        </g>
    </g>
</svg>