<?xml version="1.0" standalone="no"?>
<!DOCTYPE svg PUBLIC "-//W3C//DTD SVG 20010904//EN"
 "http://www.w3.org/TR/2001/REC-SVG-20010904/DTD/svg10.dtd">
<svg version="1.0" xmlns="http://www.w3.org/2000/svg"
 width="500.000000pt" height="500.000000pt" viewBox="0 0 500.000000 500.000000"
 preserveAspectRatio="xMidYMid meet">
<metadata>
Created by potrace 1.11, written by Peter Selinger 2001-2013
</metadata>
<g transform="translate(0.000000,500.000000) scale(0.100000,-0.100000)"
fill="#000000" stroke="none">
<path d="M1916 3853 c-2 -3 -10 -6 -18 -7 -60 -13 -127 -68 -153 -128 -11 -24
-24 -46 -30 -50 -7 -5 -7 -8 1 -8 5 0 9 -15 8 -32 -7 -93 70 -202 160 -225
175 -46 324 52 331 217 4 124 -101 229 -237 234 -32 2 -60 1 -62 -1z"/>
<path d="M2966 3848 c-9 -5 -16 -6 -16 -3 0 3 -17 -3 -37 -14 -114 -58 -163
-171 -123 -282 69 -191 341 -215 448 -40 23 37 29 60 31 114 1 37 -1 67 -6 67
-5 0 -9 9 -10 20 -1 11 -8 26 -15 33 -7 8 -22 25 -32 40 -11 14 -23 24 -28 21
-4 -3 -8 -1 -8 4 0 9 -46 32 -80 40 -33 8 -110 8 -124 0z"/>
<path d="M1650 3010 c0 -3 -34 -4 -75 -2 l-76 4 2 -524 c0 -288 4 -527 7 -533
4 -5 7 -21 8 -35 1 -14 2 -25 4 -25 1 0 4 -13 6 -30 17 -102 102 -282 174
-370 26 -32 148 -153 171 -170 85 -64 283 -164 297 -151 2 3 16 -1 31 -8 50
-26 146 -38 296 -38 161 1 195 4 195 15 0 6 3 8 6 5 3 -3 33 1 67 9 34 8 68
15 75 16 6 0 12 4 12 9 0 4 8 8 18 8 10 0 28 7 40 16 12 8 22 13 22 10 0 -7
77 35 145 79 46 30 117 87 137 110 5 6 29 33 54 60 24 28 50 62 57 78 6 15 15
27 18 27 3 0 14 18 24 40 10 22 23 40 28 40 6 0 8 3 4 6 -3 4 0 19 8 34 44 85
74 224 82 370 5 116 5 111 0 135 -2 11 0 26 6 33 6 8 6 12 -2 12 -7 0 -8 8 -1
24 5 13 6 26 4 29 -11 10 -11 42 -1 55 6 8 6 12 -2 12 -7 0 -8 8 -2 23 5 14 5
30 0 40 -7 12 -6 17 3 17 8 0 9 3 1 11 -7 7 -8 23 -3 45 4 19 4 36 0 39 -4 3
-4 21 0 40 4 19 4 37 0 40 -4 3 -4 20 0 39 4 19 5 37 3 40 -4 4 -5 92 -2 191
0 6 -2 20 -5 32 -2 13 -1 25 3 27 4 3 6 19 3 35 l-4 30 -119 3 c-66 2 -119 1
-119 -2 0 -10 -75 -5 -82 5 -5 6 -8 4 -8 -5 0 -13 -1 -13 -10 0 -9 13 -10 13
-10 0 0 -13 -1 -13 -10 0 -13 19 -11 63 -14 -520 -3 -491 -5 -527 -38 -620
-23 -63 -75 -145 -125 -196 -50 -52 -123 -111 -123 -100 0 4 -9 -2 -21 -13
-12 -11 -41 -25 -65 -32 -24 -8 -44 -17 -44 -21 0 -4 -3 -7 -7 -6 -10 2 -114
-16 -128 -22 -12 -5 -62 -3 -78 3 -9 3 -19 2 -22 -3 -4 -6 -14 -7 -23 -2 -9 5
-35 10 -57 11 -22 2 -42 6 -45 9 -5 6 -13 8 -62 14 -10 1 -18 6 -18 10 0 4 -9
8 -20 8 -11 0 -20 5 -20 11 0 6 -7 9 -15 5 -8 -3 -15 -2 -15 2 0 4 -17 16 -37
27 -52 28 -183 160 -183 184 0 5 -4 11 -8 13 -17 7 -74 157 -77 203 0 11 -3
25 -7 30 -3 6 -6 219 -7 475 0 256 -1 479 -1 497 l0 32 -110 3 c-61 2 -110 1
-110 -2z"/>
</g>
</svg>
